HIERARCHY
ROOT hip
{
	OFFSET 0.000000 0.000000 0.000000 
	CHANNELS 6 Xposition Yposition Zposition Xrotation Zrotation Yrotation
	JOINT abdomen
	{
		OFFSET 0.000000 3.402643 0.000000 
		CHANNELS 3 Xrotation Zrotation Yrotation
		JOINT chest
		{
			OFFSET 0.000000 8.438565 -0.680529 
			CHANNELS 3 Xrotation Zrotation Yrotation
			JOINT neck
			{
				OFFSET 0.000000 10.207942 -0.272212 
				CHANNELS 3 Xrotation Zrotation Yrotation
				JOINT head
				{
					OFFSET 0.000000 3.130431 0.000000 
					CHANNELS 3 Xrotation Zrotation Yrotation
					End Site
					{
						OFFSET 0.000000 3.130435 0.000000 
					}
				}
			}
			JOINT lCollar
			{
				OFFSET 3.470700 6.669187 -0.816635 
				CHANNELS 3 Yrotation Zrotation Xrotation
				JOINT lShldr
				{
					OFFSET 3.198488 0.000000 0.000000 
					CHANNELS 3 Zrotation Yrotation Xrotation
					JOINT lForeArm
					{
						OFFSET 10.139888 0.000000 0.000000 
						CHANNELS 3 Yrotation Zrotation Xrotation
						JOINT lHand
						{
							OFFSET 8.370511 0.000000 0.000000 
							CHANNELS 3 Zrotation Yrotation Xrotation
							End Site
							{
								OFFSET 4.083176 0.000000 0.000000 
							}
						}
					}
				}
			}
			JOINT rCollar
			{
				OFFSET -3.470700 6.669187 -0.816635 
				CHANNELS 3 Yrotation Zrotation Xrotation
				JOINT rShldr
				{
					OFFSET -3.198488 0.000000 0.000000 
					CHANNELS 3 Zrotation Yrotation Xrotation
					JOINT rForeArm
					{
						OFFSET -10.139888 0.000000 0.000000 
						CHANNELS 3 Yrotation Zrotation Xrotation
						JOINT rHand
						{
							OFFSET -8.370511 0.000000 0.000000 
							CHANNELS 3 Zrotation Yrotation Xrotation
							End Site
							{
								OFFSET -4.083176 0.000000 0.000000 
							}
						}
					}
				}
			}
		}
	}
	JOINT lThigh
	{
		OFFSET 5.308129 -1.633274 1.361059 
		CHANNELS 3 Xrotation Zrotation Yrotation
		JOINT lShin
		{
			OFFSET -2.041588 -20.007561 0.000000 
			CHANNELS 3 Xrotation Zrotation Yrotation
			JOINT lFoot
			{
				OFFSET 0.000000 -19.190928 -1.224953 
				CHANNELS 3 Xrotation Yrotation Zrotation
				End Site
				{
					OFFSET 0.000000 -2.449906 4.627600 
				}
			}
		}
	}
	JOINT rThigh
	{
		OFFSET -5.308129 -1.633274 1.361059 
		CHANNELS 3 Xrotation Zrotation Yrotation
		JOINT rShin
		{
			OFFSET 2.041588 -20.007561 0.000000 
			CHANNELS 3 Xrotation Zrotation Yrotation
			JOINT rFoot
			{
				OFFSET 0.000000 -19.190928 -1.224953 
				CHANNELS 3 Xrotation Yrotation Zrotation
				End Site
				{
					OFFSET 0.000000 -2.449906 4.627600 
				}
			}
		}
	}
}
MOTION
Frames: 13
Frame Time: 0.033333
9.752408 36.729652 78.795616 -55.730274 -17.590683 -15.037143 0.000000 0.000000 0.000000 -25.849581 25.131327 12.730080 -85.977684 -6.132055 -0.903728 -21.501926 14.958279 9.941678 44.996326 -16.457697 25.000000 17.388468 22.545050 -36.122002 25.324469 17.704016 152.570724 98.834869 5.531519 -31.530432 -45.000000 -25.468098 -4.583642 19.568043 -16.524384 46.998676 -26.070000 19.451275 161.922607 -61.418736 -55.356651 -37.722034 9.953317 42.397537 41.687077 111.413994 18.097006 0.987587 4.587406 -1.760103 -7.395632 -3.708971 -5.075731 -0.292360 104.478798 -3.534373 7.161722 15.789596 -5.433293 31.657448 
9.748385 36.427795 79.926666 -55.988461 -17.848949 -17.457676 0.000000 0.000000 0.000000 -23.025627 26.658789 13.370617 -84.612610 -4.706581 -0.793957 -25.160122 16.370169 11.885977 44.998615 -11.728470 24.996786 11.259968 17.271433 -36.188110 24.749109 23.031401 154.195435 97.943810 6.100729 -34.624115 -45.000000 -29.999413 -8.164208 26.848896 -17.685907 49.271099 -28.404331 15.561585 160.074097 -59.972549 -54.955963 -40.736404 16.410034 44.675514 45.140591 112.349327 15.275033 0.397862 1.559300 -4.406066 -4.220521 -3.971205 -4.849361 -0.175249 106.871262 -6.112663 6.725017 14.664201 -7.609262 30.477022 
9.685710 36.330658 80.866295 -57.106468 -19.399172 -19.113949 0.000000 0.000000 0.000000 -19.939983 28.614462 14.176776 -85.285042 -3.720407 -0.724302 -33.937660 16.351889 12.037285 44.993813 -7.591518 25.000000 6.262407 13.068209 -36.010422 23.213573 27.845331 158.517624 95.984039 6.755021 -36.755436 -45.000000 -29.999981 -10.885370 32.291805 -18.838875 51.336239 -30.688108 12.978847 158.310776 -56.312778 -54.087475 -45.040821 24.193043 46.707520 48.774326 112.659660 13.605330 0.005250 0.610175 -8.192204 -4.800083 -2.205689 -2.996302 0.300659 107.936043 -8.475293 6.283709 14.640859 -7.869642 31.982176 
9.659214 36.337826 81.553909 -57.964634 -20.777422 -19.731342 0.000000 0.000000 0.000000 -18.126160 29.973677 14.742458 -85.402473 -3.700877 -0.724301 -39.736824 16.620617 12.513302 44.998375 -4.502073 25.000000 2.821350 10.499393 -35.786819 21.335602 31.271971 162.802094 94.494568 7.064905 -36.941467 -45.000000 -30.000000 -12.851475 35.670036 -20.214716 52.759735 -32.222126 11.159614 157.360733 -52.768967 -53.195805 -48.214680 29.056633 47.723434 50.837437 112.760712 13.215627 -0.087707 2.187870 -11.210183 -8.268603 -0.222778 -1.172043 0.786564 108.142944 -10.116208 5.962419 15.910480 -7.050715 34.802502 
9.732400 36.309444 82.019432 -57.617290 -20.559875 -19.752527 0.000000 0.000000 0.000000 -18.564516 29.939707 14.702659 -85.723877 -3.769231 -0.724303 -44.312248 17.068596 12.698509 44.997490 -2.577731 25.000000 1.077806 9.425911 -35.659817 19.976143 33.212193 164.753510 94.595360 6.917697 -35.200420 -45.000000 -29.997087 -14.072721 37.069908 -21.359476 53.331848 -32.586388 10.383542 157.642426 -50.774242 -52.865627 -48.958538 28.691391 47.461773 50.352409 113.264641 13.530430 0.001847 4.026436 -12.265775 -12.028913 0.058863 -0.885916 0.871002 108.200676 -10.770273 5.833713 15.972792 -8.897315 34.498951 
9.804944 36.355038 82.401581 -57.714054 -20.130838 -20.306520 0.000000 0.000000 0.000000 -18.343721 29.984398 14.734069 -85.823280 -3.066194 -0.674953 -47.563866 18.175642 12.602829 44.998550 -1.235108 25.000000 0.331004 9.204976 -35.638199 18.971624 33.988873 165.368118 95.363968 6.642648 -33.607647 -45.000000 -30.000000 -14.575152 37.923748 -21.608692 53.746223 -32.483173 10.443007 158.344025 -51.086330 -53.361443 -46.987526 30.565842 46.738331 49.265701 113.136215 11.410968 -0.484304 3.470245 -13.496543 -12.667382 0.719997 -1.040594 0.814915 108.270226 -11.366509 5.703324 11.972348 -15.650376 28.633867 
9.776316 36.554790 82.360901 -58.370491 -21.448803 -20.564114 0.000000 0.000000 0.000000 -17.751715 31.280231 15.239287 -86.110832 -3.378652 -0.704780 -48.326500 19.609104 12.380766 44.999359 -1.597863 24.994471 1.295851 10.268192 -35.771488 18.202507 33.473721 164.963577 96.429680 6.231845 -33.081341 -45.000000 -30.000000 -14.819965 37.869259 -21.935349 53.683949 -32.628803 10.506189 160.506409 -54.598232 -54.151291 -44.077133 34.409760 47.401764 50.475769 112.030693 10.001884 -0.820456 3.264572 -14.406282 -10.535269 2.353701 0.459111 1.218847 108.063103 -12.410563 5.521868 14.755100 -9.567544 36.797493 
9.703204 36.747192 82.269264 -58.970718 -23.129194 -20.965731 0.000000 0.000000 0.000000 -17.088743 32.879372 15.903841 -86.171318 -3.857106 -0.734704 -47.742344 21.288841 12.372644 44.996738 -2.115663 25.000000 2.679924 10.905153 -35.848541 18.008940 32.591412 165.838242 97.646362 5.719374 -32.839493 -45.000000 -30.000000 -14.997777 37.426575 -22.676029 53.371719 -32.141899 10.370821 162.806641 -56.799240 -54.473621 -42.798531 38.754101 48.603153 52.758831 110.958572 8.899294 -1.101148 3.968748 -15.666634 -9.821999 3.657016 2.516334 1.795877 107.882965 -13.125042 5.361842 17.747458 -5.887713 42.634392 
9.620547 37.001282 82.113914 -59.981075 -24.798515 -21.795286 0.000000 0.000000 0.000000 -15.693246 34.647652 16.702587 -85.994370 -3.896157 -0.744453 -45.746784 23.354607 12.601771 44.997902 -2.989831 24.997826 4.553834 11.632203 -35.879066 18.101467 31.315830 167.186539 98.882751 5.238607 -32.807930 -45.000000 -29.996088 -14.728128 36.987869 -23.058405 53.107407 -31.509678 10.621487 164.584229 -57.220818 -54.400139 -43.124531 44.959831 49.492138 54.403831 109.471062 5.559956 -1.845137 5.201477 -17.735535 -8.509825 5.395712 4.537368 2.356798 107.403183 -14.101493 5.145418 19.828428 -4.602040 46.195087 
9.578370 37.307751 81.871513 -61.132660 -25.730301 -22.625481 0.000000 0.000000 0.000000 -14.423411 35.855091 17.278986 -85.628815 -3.613001 -0.714551 -42.109665 25.689823 13.145526 44.998169 -4.402659 24.996773 6.855705 12.863012 -35.943691 18.104368 29.720028 168.122147 100.257584 4.695990 -32.750977 -45.000000 -29.998434 -13.970358 36.610130 -22.987787 52.928005 -31.048504 11.148983 165.621124 -56.922211 -54.184685 -43.905701 50.770103 49.648785 53.965244 108.065590 0.304628 -3.098181 6.039305 -19.488434 -6.281718 7.089316 5.732026 2.685205 106.610634 -15.233578 4.860479 20.786407 -4.550958 48.086220 
9.592294 37.614498 81.550323 -61.862022 -25.665586 -23.073736 0.000000 0.000000 0.000000 -14.334538 36.163219 17.409735 -85.142349 -3.515360 -0.704796 -36.914791 27.943953 13.971030 44.995270 -6.231344 25.000000 9.460556 14.694392 -35.998722 17.932398 27.953745 168.322083 101.755768 4.021539 -32.324429 -45.000000 -30.000000 -12.978779 36.134819 -22.887903 52.692348 -30.858713 11.456067 166.072968 -57.645321 -54.220707 -43.743790 53.710011 49.228706 52.253124 107.064598 -4.368745 -4.197325 5.674786 -20.088221 -3.735693 7.982322 5.933475 2.714833 105.634773 -16.063042 4.646144 20.853230 -4.811250 48.384354 
9.573010 37.891506 81.182953 -62.382202 -25.909111 -23.611214 0.000000 0.000000 0.000000 -14.354416 36.739338 17.680399 -84.651886 -3.642296 -0.714553 -31.084812 29.855787 14.849380 44.994358 -8.151548 24.998260 12.312771 16.732042 -35.991802 18.254320 25.995436 168.289612 102.260254 3.671860 -31.415062 -45.000000 -30.000000 -11.968369 35.552658 -23.022316 52.399281 -30.904335 11.320253 165.892731 -61.105576 -54.881603 -41.417885 57.282677 49.052979 50.835739 106.300705 -9.407837 -5.398418 4.735657 -21.284260 -1.309311 8.754645 6.705442 2.937885 104.557281 -17.002516 4.409512 20.630653 -5.517160 47.111328 
10.133658 37.846867 80.491646 -57.953594 -17.873383 -18.100088 0.000000 0.000000 0.000000 -26.092150 28.429998 13.827079 -84.887253 -6.053972 -0.884304 -23.689743 30.736330 15.288374 44.998169 -12.131330 24.999968 17.505859 20.242695 -35.745312 19.925644 23.752783 166.412582 102.311195 3.377265 -29.699610 -45.000000 -29.999052 -10.597648 33.125782 -24.990587 51.002701 -31.094873 9.339850 166.142639 -65.793648 -55.722557 -38.141842 29.039160 44.803703 46.170803 107.102310 6.292109 -1.723379 3.942985 -12.155820 -3.842761 0.622136 -1.389257 0.706639 104.007446 -12.029538 5.371021 19.821079 -3.147726 43.651932 
